
        <svg xmlns="http://www.w3.org/2000/svg" xmlns:xlink="http://www.w3.org/1999/xlink" version="1.1" width="3171.4285714285716" height="2014.7937941079542" viewBox="0 0 3171.4285714285716 2014.7937941079542">
			
			<g transform="scale(8.571428571428571) translate(10, 10)">
				<defs id="SvgjsDefs1036"/><g id="SvgjsG1037" featureKey="1p4tPl-0" transform="matrix(2.1874999999999996,0,0,2.1874999999999996,102.81249947845936,-2.625000104308128)" fill="#000"><g xmlns="http://www.w3.org/2000/svg"><g><g><path d="M63.9,30.2c0.7,0.7,1.1,1.7,1.1,2.7c0,1-0.4,2-1.1,2.7c-0.7,0.7-1.6,1.1-2.7,1.1c-1,0-2-0.4-2.7-1.1     c-0.4-0.4-0.7-0.9-0.9-1.4l-28.8,0c-0.5,0-1-0.5-1-1c0-0.5,0.5-1,1-1l28.6,0c0.3-1.8,1.9-3.1,3.8-3.1c0,0,0,0,0,0     C62.2,29.1,63.2,29.5,63.9,30.2z"/></g><g><path d="M58.2,58.3c0.7,0.7,1.1,1.7,1.1,2.7c0,1-0.4,2-1.1,2.7c-0.7,0.7-1.7,1.1-2.7,1.1c-2.1,0-3.8-1.7-3.8-3.8     c0-0.8,0.2-1.5,0.7-2.2l-6.1-6l-13.5,0c-5.3,0-10.3-2.1-14.1-5.8c-3.8-3.8-5.8-8.8-5.8-14.1c0-5.3,2.1-10.3,5.8-14.1     c3.8-3.8,8.8-5.8,14.1-5.8c0,0,0,0,0,0l13.6,0L52.1,8c-0.3-0.5-0.4-1.1-0.4-1.7c0-1,0.4-2,1.1-2.7c0.7-0.7,1.7-1.1,2.7-1.1h0     c1,0,2,0.4,2.7,1.1c0.7,0.7,1.1,1.7,1.1,2.7c0,1-0.4,2-1.1,2.7c-0.7,0.7-1.7,1.1-2.7,1.1c-0.8,0-1.5-0.2-2.1-0.6l-6.1,5.3     c-0.2,0.2-0.4,0.3-0.7,0.3l-14,0h0c-4.8,0-9.3,1.9-12.6,5.2c-3.4,3.4-5.3,7.9-5.3,12.7c0,4.8,1.9,9.3,5.2,12.7     c3.4,3.4,7.9,5.3,12.7,5.3l14,0c0.3,0,0.5,0.1,0.7,0.3l6.5,6.4c0.5-0.2,1.1-0.4,1.6-0.4C56.5,57.2,57.5,57.6,58.2,58.3z"/></g><g><path d="M39.6,57.6l-1.1,6.2c-0.1,0.5-0.5,0.8-1,0.8l-9.5,0c-0.5,0-0.9-0.4-1-0.8l-1-5.6c-2.3-0.6-4.4-1.5-6.4-2.6l-4.6,3.2     c-0.4,0.3-0.9,0.2-1.3-0.1l-6.8-6.8c-0.3-0.3-0.4-0.9-0.1-1.3L10,46c-1.2-2-2.1-4.2-2.6-6.4l-5.6-1c-0.5-0.1-0.8-0.5-0.8-1l0-9.5     c0-0.5,0.3-0.9,0.8-1l5.5-1c0.6-2.2,1.5-4.4,2.7-6.4l-3.2-4.6c-0.3-0.4-0.2-0.9,0.1-1.3l6.8-6.8C14,6.7,14.6,6.7,15,7l4.6,3.2     c2-1.2,4.1-2,6.4-2.6L27,2c0.1-0.5,0.5-0.8,1-0.8h9.6c0.5,0,0.9,0.4,1,0.8l1.1,6.2c0.1,0.6-0.3,1.1-0.8,1.2     c-0.5,0.1-1.1-0.3-1.2-0.8l-0.9-5.4h-7.9l-1,5.4c-0.1,0.4-0.4,0.7-0.8,0.8c-2.5,0.6-4.8,1.5-7,2.9c-0.3,0.2-0.8,0.2-1.1,0     l-4.5-3.1l-5.6,5.6l3.1,4.5c0.2,0.3,0.2,0.8,0,1.1c-1.3,2.2-2.3,4.5-2.9,7c-0.1,0.4-0.4,0.7-0.8,0.8L3,29v7.9l5.4,1     c0.4,0.1,0.7,0.4,0.8,0.8c0.6,2.5,1.5,4.8,2.9,7c0.2,0.3,0.2,0.8,0,1.1l-3.1,4.5l5.6,5.6l4.5-3.1c0.3-0.2,0.8-0.2,1.1,0     c2.2,1.4,4.5,2.3,7,2.9c0.4,0.1,0.7,0.4,0.8,0.8l0.9,5.4l7.9,0l1-5.4c0.1-0.5,0.6-0.9,1.2-0.8C39.3,56.5,39.7,57.1,39.6,57.6z"/></g><g><path d="M63.9,47.9c0.7,0.7,1.1,1.7,1.1,2.7s-0.4,1.9-1.1,2.7c-0.7,0.7-1.7,1.1-2.7,1.1c-1,0-2-0.4-2.7-1.1c-0.5-0.5-0.8-1-1-1.6     l-1.6,0c-0.3,0-0.5-0.1-0.7-0.3l-5-5l-16.8,0c-7.1,0-12.8-5.8-12.8-12.8v-0.5c0-3.4,1.3-6.7,3.8-9.1c2.4-2.4,5.6-3.8,9.1-3.8h0     l16.8,0l5-5c0.2-0.2,0.4-0.3,0.7-0.3h1.6c0.4-1.6,1.9-2.8,3.6-2.8c1,0,2,0.4,2.7,1.1c0.7,0.7,1.1,1.7,1.1,2.7c0,1-0.4,2-1.1,2.7     c-0.7,0.7-1.7,1.1-2.7,1.1c-1,0-2-0.4-2.7-1.1c-0.5-0.5-0.8-1-1-1.7h-1.2l-5,5c-0.2,0.2-0.4,0.3-0.7,0.3l-17.2,0c0,0,0,0,0,0     c-2.9,0-5.6,1.1-7.7,3.2c-2,2-3.2,4.8-3.2,7.7v0.5c0,6,4.9,10.8,10.8,10.8l17.2,0c0.3,0,0.5,0.1,0.7,0.3l5,5l1.2,0     c0.2-0.6,0.5-1.2,1-1.7c0.7-0.7,1.7-1.1,2.7-1.1C62.2,46.8,63.2,47.2,63.9,47.9z"/></g></g></g></g><g id="SvgjsG1038" featureKey="dYASrj-0" transform="matrix(3.686872973132839,0,0,3.686872973132839,-6.193581169078011,140.56564392452597)" fill="#000"><path d="M11.836 10.1367 c1.8555 0 3.1543 1.0938 3.1543 3.1152 l0 6.748 l-1.875 0 l0 -6.25 c0 -1.4258 -0.83984 -2.0508 -1.8066 -2.0508 c-1.1328 0 -2.0117 0.72266 -2.0117 2.4121 l0 5.8887 l-1.9043 0 l0 -6.1816 c0 -1.4648 -0.83008 -2.1191 -1.8359 -2.1191 c-1.1035 0 -2.0117 0.72266 -2.0117 2.4805 l0 5.8203 l-1.8652 0 l0 -9.668 l1.8652 0 l0 1.2305 c0.57617 -0.9082 1.5137 -1.4258 2.6758 -1.4258 c1.2598 0 2.2754 0.53711 2.7637 1.5625 c0.60547 -1.0254 1.6113 -1.5625 2.8516 -1.5625 z M26.757906249999998 14.9805 l-0.029297 0.49805 l-7.4902 0 c0.068359 2.1387 1.416 3.1738 3.0176 3.1738 c1.1523 0 2.1094 -0.625 2.5977 -1.6699 l1.6992 0.33203 c-0.68359 1.7969 -2.3145 2.8711 -4.2773 2.8711 c-2.8711 0 -4.873 -1.8555 -4.873 -5.0195 s2.0508 -5.0293 4.8145 -5.0293 c2.627 0 4.5313 1.582 4.541 4.8438 z M22.22660625 11.5625 c-1.4941 0 -2.6172 0.80078 -2.9102 2.4902 l5.5566 0 c-0.15625 -1.6797 -1.2207 -2.4902 -2.6465 -2.4902 z M33.38871875 20.17578 c-2.8125 0 -4.8926 -2.002 -4.8926 -5.0195 s2.0801 -5.0195 4.8926 -5.0195 c2.1875 0 3.9063 1.1914 4.4824 3.2617 l-1.748 0.26367 c-0.42969 -1.2891 -1.4746 -1.9824 -2.7539 -1.9824 c-1.7188 0 -2.998 1.3672 -2.998 3.4766 c0 2.0996 1.2793 3.4766 2.998 3.4766 c1.2793 0 2.3242 -0.69336 2.7539 -1.9824 l1.748 0.26367 c-0.57617 2.0605 -2.3242 3.2617 -4.4824 3.2617 z M45.117215625 10.1367 c1.9629 0 3.3203 1.1816 3.3203 3.4961 l0 6.3672 l-1.8848 0 l0 -6.0254 c0 -1.6602 -0.9375 -2.2754 -2.0508 -2.2754 c-1.2305 0 -2.334 0.74219 -2.3438 2.5879 l0 5.7129 l-1.875 0 l0 -15 l1.875 0 l0 6.5723 c0.625 -0.9082 1.6602 -1.4355 2.959 -1.4355 z M53.847675 20.18555 c-1.5918 0 -2.959 -0.78125 -2.959 -2.6465 c0 -2.0215 1.6016 -2.6855 3.6719 -3.0469 l1.5234 -0.26367 c0.61523 -0.11719 0.87891 -0.41016 0.87891 -0.88867 c0 -1.3281 -0.99609 -1.7969 -2.0508 -1.7969 c-1.1133 0 -2.0313 0.49805 -2.1777 1.7676 l-1.6895 -0.3418 c0.3125 -1.9043 1.7285 -2.8125 3.9551 -2.8125 c1.9434 0 3.7695 0.77148 3.7695 3.3691 l0 3.916 c0 0.99609 0.2832 1.2402 0.9668 1.2402 l0.14648 0 l0 1.3184 l-0.9082 0 c-1.0156 0 -1.6797 -0.40039 -1.875 -1.2988 l-0.087891 0 c-0.77148 1.0645 -1.9824 1.4844 -3.1641 1.4844 z M54.277375 18.6914 c1.6406 0 2.8223 -1.25 2.8223 -3.3008 l-2.5293 0.51758 c-1.2012 0.20508 -1.8555 0.60547 -1.8555 1.4844 c0 0.91797 0.69336 1.2988 1.5625 1.2988 z M66.97264375 10.1367 c2.041 0 3.3887 1.1816 3.3887 3.3496 l0 6.5137 l-1.8848 0 l0 -6.0938 c0 -1.5918 -0.94727 -2.207 -2.041 -2.207 c-1.2891 0 -2.3438 0.78125 -2.3535 2.5879 l0 5.7129 l-1.875 0 l0 -9.668 l1.875 0 l0 1.1914 c0.625 -0.87891 1.6406 -1.3867 2.8906 -1.3867 z M74.49216875 8.193 c-0.66406 0 -1.2305 -0.54688 -1.2305 -1.2207 s0.56641 -1.2109 1.2305 -1.2109 c0.6543 0 1.2109 0.53711 1.2109 1.2109 s-0.55664 1.2207 -1.2109 1.2207 z M73.53516875 20 l0 -9.668 l1.8848 0 l0 9.668 l-1.8848 0 z M85.361309375 10.332 l-4.9902 8.1641 l4.9707 0 l0 1.5039 l-7.7539 0 l4.9512 -8.1641 l-4.6484 0 l0 -1.5039 l7.4707 0 z M94.736296875 5 l1.875 0 l0 15 l-1.8066 0 l-0.048828 -1.7578 c-0.5957 1.2109 -1.875 1.9629 -3.3496 1.9629 c-2.4902 0 -4.5508 -1.9531 -4.5508 -5.0391 c0 -3.0664 2.0703 -5.0293 4.5508 -5.0293 c1.4551 0 2.7246 0.73242 3.3301 1.9141 l0 -7.0508 z M91.806596875 18.6035 c1.7188 0 3.0566 -1.4551 3.0566 -3.4375 c0 -1.9727 -1.3477 -3.4277 -3.0566 -3.4277 s-3.0762 1.3477 -3.0762 3.4277 s1.3672 3.4375 3.0762 3.4375 z"/></g>
			</g>
		</svg>
	